<svg width="300" height="600" viewBox="0 0 300 600" xmlns="http://www.w3.org/2000/svg">
  <rect x="0" y="0" width="300" height="600" fill="white" />
  
  <!-- Body Outline - Front View - Realistic anatomical silhouette -->
  <!-- Head -->
  <ellipse cx="150" cy="50" rx="40" ry="45" fill="white" stroke="#94a3b8" stroke-width="2.5" />
  
  <!-- Complete body outline with arms -->
  <path
    d="M 110 95
       Q 105 110, 100 125
       Q 95 140, 92 160
       Q 88 190, 88 230
       Q 88 270, 92 310
       Q 96 350, 102 390
       Q 106 420, 110 450
       Q 114 480, 118 510
       Q 120 540, 120 570
       Q 120 585, 118 590
       Q 116 592, 113 592
       Q 110 592, 108 590
       Q 106 585, 105 570
       Q 103 540, 100 510
       Q 97 480, 95 450
       Q 92 420, 90 390
       Q 87 350, 85 310
       Q 83 270, 85 230
       Q 87 190, 92 160
       Q 95 140, 100 125
       Q 105 110, 110 95
       Z
       M 190 95
       Q 195 110, 200 125
       Q 205 140, 208 160
       Q 212 190, 212 230
       Q 212 270, 208 310
       Q 204 350, 198 390
       Q 194 420, 190 450
       Q 186 480, 182 510
       Q 180 540, 180 570
       Q 180 585, 182 590
       Q 184 592, 187 592
       Q 190 592, 192 590
       Q 194 585, 195 570
       Q 197 540, 200 510
       Q 203 480, 205 450
       Q 208 420, 210 390
       Q 213 350, 215 310
       Q 217 270, 215 230
       Q 213 190, 208 160
       Q 205 140, 200 125
       Q 195 110, 190 95
       Z"
    fill="white"
    stroke="#94a3b8"
    stroke-width="2.5"
    stroke-linecap="round"
    stroke-linejoin="round"
  />
  
  <!-- Left arm -->
  <path
    d="M 100 125
       Q 85 130, 70 145
       Q 55 185, 50 235
       Q 48 265, 50 295
       Q 52 325, 56 350
       Q 60 370, 65 380
       Q 68 385, 70 387
       Q 72 389, 74 389
       Q 76 389, 78 387
       Q 80 385, 78 380
       Q 76 375, 73 365
       Q 70 345, 68 315
       Q 66 285, 68 245
       Q 70 205, 78 165
       Q 85 145, 95 130
       Z"
    fill="white"
    stroke="#94a3b8"
    stroke-width="2.5"
    stroke-linecap="round"
    stroke-linejoin="round"
  />
  
  <!-- Right arm -->
  <path
    d="M 200 125
       Q 215 130, 230 145
       Q 245 185, 250 235
       Q 252 265, 250 295
       Q 248 325, 244 350
       Q 240 370, 235 380
       Q 232 385, 230 387
       Q 228 389, 226 389
       Q 224 389, 222 387
       Q 220 385, 222 380
       Q 224 375, 227 365
       Q 230 345, 232 315
       Q 234 285, 232 245
       Q 230 205, 222 165
       Q 215 145, 205 130
       Z"
    fill="white"
    stroke="#94a3b8"
    stroke-width="2.5"
    stroke-linecap="round"
    stroke-linejoin="round"
  />
</svg>





